<svg width="17" height="4" viewBox="0 0 17 4" fill="none" xmlns="http://www.w3.org/2000/svg">
<path d="M1.5 2H1.51M8.5 2H8.51M15.5 2H15.51M2.5 2C2.5 2.55228 2.05228 3 1.5 3C0.947715 3 0.5 2.55228 0.5 2C0.5 1.44772 0.947715 1 1.5 1C2.05228 1 2.5 1.44772 2.5 2ZM9.5 2C9.5 2.55228 9.05228 3 8.5 3C7.94772 3 7.5 2.55228 7.5 2C7.5 1.44772 7.94772 1 8.5 1C9.05228 1 9.5 1.44772 9.5 2ZM16.5 2C16.5 2.55228 16.0523 3 15.5 3C14.9477 3 14.5 2.55228 14.5 2C14.5 1.44772 14.9477 1 15.5 1C16.0523 1 16.5 1.44772 16.5 2Z" stroke="#000000" stroke-width="2" stroke-linecap="round" stroke-linejoin="round"/>
</svg>
